<svg width="44" height="44" viewBox="0 0 44 44" fill="none" xmlns="http://www.w3.org/2000/svg">
<rect x="0.5" y="0.5" width="43" height="43" rx="5.5" stroke="white"/>
<path d="M15.1091 28H18.0147V18.0674H15.1091V28ZM16.5687 16.7871C17.4349 16.7871 18.1443 16.1598 18.1443 15.3903C18.1443 14.6273 17.4349 14 16.5687 14C15.7093 14 15 14.6273 15 15.3903C15 16.1598 15.7093 16.7871 16.5687 16.7871Z" fill="white"/>
<path d="M23.2477 22.2577C23.2545 20.9774 24.0593 20.2273 25.2325 20.2273C26.3988 20.2273 27.1013 20.9515 27.0945 22.1672V28H30V21.6758C30 19.3607 28.5677 17.9381 26.3851 17.9381C24.8301 17.9381 23.7047 18.6624 23.2341 19.8199H23.1113V18.0674H20.3422V28H23.2477V22.2577Z" fill="white"/>
</svg>
