<svg width="44" height="44" viewBox="0 0 44 44" fill="none" xmlns="http://www.w3.org/2000/svg">
<rect x="0.5" y="0.5" width="43" height="43" rx="5.5" stroke="white"/>
<path fill-rule="evenodd" clip-rule="evenodd" d="M28.2576 14.2838C27.6278 14.5695 20.5276 17.8842 14.7444 20.5703C14.2863 20.7989 14 21.2561 14 21.7133C14 22.1705 14.3436 22.5134 14.7444 22.5705C15.0879 22.6277 18.5235 23.142 18.5235 23.142L19.4969 28.857L20.0122 26.3424L19.2679 22.5705L26.2535 17.427L20.5276 23.7135L22.5317 25.9995C22.6462 26.1138 25.1083 28.9713 25.2801 29.1428C25.5664 29.4285 26.0245 30 26.2535 30C26.6544 30 27.0552 29.4285 27.2269 28.5713C27.3987 27.7712 28.5439 22.2276 29.9754 14.8553C30.1472 14.0552 29.4028 13.7123 28.2576 14.2838Z" fill="white"/>
</svg>
