<svg width="44" height="44" viewBox="0 0 44 44" fill="none" xmlns="http://www.w3.org/2000/svg">
<rect x="0.5" y="0.5" width="43" height="43" rx="5.5" stroke="white"/>
<path d="M32 15.8942C31.2642 16.2158 30.4733 16.4323 29.6433 16.5299C30.4908 16.0304 31.1417 15.2387 31.4475 14.2953C30.655 14.758 29.7767 15.0943 28.8417 15.2756C28.0942 14.4906 27.0267 14 25.8467 14C23.1975 14 21.2508 16.4331 21.8492 18.959C18.44 18.7908 15.4167 17.1829 13.3925 14.7391C12.3175 16.5546 12.835 18.9294 14.6617 20.1321C13.99 20.1107 13.3567 19.9295 12.8042 19.6267C12.7592 21.4979 14.1217 23.2486 16.095 23.6382C15.5175 23.7925 14.885 23.8285 14.2417 23.7071C14.7633 25.3117 16.2783 26.4791 18.075 26.5119C16.35 27.8433 14.1767 28.4381 12 28.1854C13.8158 29.3314 15.9733 30 18.29 30C25.9083 30 30.2125 23.6661 29.9525 17.9852C30.7542 17.4151 31.45 16.7039 32 15.8942Z" fill="white"/>
</svg>
