<svg width="134" height="28" viewBox="0 0 134 28" fill="none" xmlns="http://www.w3.org/2000/svg">
<g clip-path="url(#clip0)">
<path d="M8.12333 24.9472C6.12271 24.9472 4.68757 24.0247 3.88893 22.6327C3.85875 22.5815 3.81856 22.537 3.77079 22.5018C3.72301 22.4666 3.66864 22.4415 3.61093 22.4279C3.55322 22.4143 3.49338 22.4126 3.43499 22.4228C3.37661 22.4331 3.32089 22.4551 3.27119 22.4875L1.34025 23.7369C1.291 23.7682 1.24842 23.809 1.21498 23.8569C1.18154 23.9048 1.15791 23.9589 1.14544 24.0161C1.13298 24.0733 1.13194 24.1323 1.14238 24.1899C1.15282 24.2475 1.17453 24.3024 1.20625 24.3515C1.94359 25.4714 2.94573 26.3908 4.12323 27.0274C5.30074 27.6641 6.61699 27.9982 7.95449 28.0001C10.9923 28.0001 13.3051 26.4817 14.6625 24.3057C14.7245 24.2071 14.7452 24.088 14.7201 23.9741C14.695 23.8603 14.6262 23.761 14.5285 23.6979L12.6686 22.5009C12.618 22.4686 12.5613 22.4469 12.502 22.4373C12.4427 22.4277 12.3821 22.4303 12.3239 22.4451C12.2657 22.4598 12.2111 22.4863 12.1635 22.523C12.1158 22.5596 12.0761 22.6057 12.0469 22.6583C11.6501 23.3515 11.0788 23.9278 10.3902 24.3296C9.70158 24.7313 8.91984 24.9443 8.12333 24.9472Z" fill="black"/>
<path d="M86.4309 6.29524H89.119C89.2359 6.29524 89.348 6.34185 89.4307 6.42483C89.5134 6.50781 89.5598 6.62035 89.5598 6.7377V20.8453C89.5598 20.9626 89.5134 21.0752 89.4307 21.1582C89.348 21.2411 89.2359 21.2877 89.119 21.2877H86.4805C86.3702 21.2878 86.264 21.2465 86.1826 21.1718C86.1012 21.0971 86.0507 20.9945 86.041 20.8843L85.9284 19.53C85.925 19.5033 85.9136 19.4783 85.8959 19.4582C85.8781 19.438 85.8547 19.4237 85.8287 19.417C85.8028 19.4104 85.7754 19.4117 85.7502 19.4208C85.7249 19.4299 85.703 19.4464 85.6872 19.4681C84.7104 20.9838 82.5905 21.7181 81.0441 21.7463C76.6221 21.7773 73.3472 19.0405 73.3472 13.7794C73.3472 8.6084 76.7722 5.90254 81.1352 5.93212C82.9818 5.93212 84.7533 6.73904 85.6792 8.03145C85.6959 8.05207 85.7184 8.06724 85.7437 8.07505C85.769 8.08286 85.7961 8.08296 85.8215 8.07533C85.8469 8.0677 85.8694 8.05269 85.8863 8.03219C85.9032 8.01169 85.9137 7.98663 85.9164 7.96017L85.9901 6.71483C85.9959 6.60149 86.0449 6.49474 86.127 6.41665C86.209 6.33855 86.3179 6.29509 86.4309 6.29524ZM77.0509 13.7767C77.0509 16.6345 79.0207 18.3385 81.4729 18.3385C87.2899 18.3385 87.2899 9.24452 81.4729 9.24452C79.014 9.24452 77.0509 10.9175 77.0509 13.7767Z" fill="black"/>
<path d="M98.2504 2.55514V6.10423C98.2518 6.16214 98.2757 6.21721 98.317 6.25767C98.3584 6.29813 98.4138 6.32077 98.4715 6.32075H101.93C101.988 6.32057 102.046 6.33189 102.099 6.35404C102.153 6.3762 102.202 6.40876 102.243 6.44987C102.284 6.49097 102.316 6.53981 102.339 6.59358C102.361 6.64735 102.372 6.70499 102.372 6.76321V9.07503C102.372 9.19273 102.326 9.30561 102.243 9.38884C102.16 9.47207 102.047 9.51883 101.93 9.51883H98.4461C98.4168 9.51847 98.3878 9.52395 98.3606 9.53494C98.3335 9.54594 98.3088 9.56222 98.288 9.58287C98.2672 9.60351 98.2506 9.62809 98.2394 9.65519C98.2281 9.68229 98.2223 9.71136 98.2223 9.74073V15.9957C98.2223 17.4253 99.0102 18.1246 100.163 18.1246C100.629 18.1146 101.091 18.0236 101.527 17.8556C101.582 17.8345 101.642 17.8249 101.701 17.8274C101.76 17.8299 101.819 17.8445 101.872 17.8703C101.926 17.8961 101.974 17.9325 102.013 17.9774C102.052 18.0222 102.082 18.0746 102.1 18.1313L102.849 20.4297C102.885 20.5391 102.877 20.658 102.827 20.7616C102.777 20.8651 102.689 20.9452 102.581 20.9851C101.728 21.2945 100.829 21.459 99.9214 21.472C96.6786 21.593 94.5614 19.7384 94.5614 15.997V9.74073C94.5614 9.71125 94.5555 9.68206 94.5442 9.65487C94.5328 9.62768 94.5162 9.60304 94.4952 9.58238C94.4743 9.56172 94.4494 9.54546 94.4221 9.53455C94.3948 9.52364 94.3656 9.51829 94.3363 9.51883H92.207C92.09 9.51847 91.9778 9.47156 91.8952 9.38837C91.8126 9.30518 91.7661 9.1925 91.7661 9.07503V6.76859C91.7654 6.71003 91.7763 6.65192 91.7981 6.59762C91.82 6.54331 91.8523 6.4939 91.8934 6.45224C91.9344 6.41058 91.9832 6.37751 92.037 6.35494C92.0909 6.33237 92.1487 6.32075 92.207 6.32075H94.3363C94.3947 6.3204 94.4506 6.29686 94.4917 6.25528C94.5329 6.21371 94.556 6.15747 94.556 6.09885V2.86177C94.5562 2.7512 94.5976 2.64468 94.6719 2.56309C94.7463 2.4815 94.8483 2.43071 94.958 2.42065L97.772 2.12075C97.8323 2.11557 97.893 2.12291 97.9504 2.14231C98.0077 2.16171 98.0605 2.19275 98.1054 2.2335C98.1503 2.27425 98.1863 2.32384 98.2113 2.37917C98.2362 2.43451 98.2495 2.49441 98.2504 2.55514Z" fill="black"/>
<path d="M117.505 19.0485C117.549 19.0909 117.583 19.1416 117.606 19.1977C117.629 19.2538 117.64 19.314 117.639 19.3746C117.638 19.4352 117.624 19.4949 117.599 19.5501C117.574 19.6053 117.538 19.6547 117.493 19.6954C115.868 21.16 114.143 21.7436 112.078 21.7436C107.746 21.7436 104.14 19.1279 104.14 13.8089C104.14 8.49002 107.746 5.87427 112.078 5.87427C114.057 5.87427 115.615 6.40414 117.142 7.78263C117.186 7.82232 117.221 7.8704 117.246 7.92403C117.271 7.97766 117.285 8.03576 117.287 8.09491C117.29 8.15406 117.28 8.21306 117.259 8.26845C117.239 8.32383 117.207 8.37447 117.166 8.4174L115.424 10.2599C115.348 10.3389 115.246 10.387 115.137 10.3949C115.028 10.4029 114.92 10.3701 114.833 10.3029C114.06 9.70903 113.116 9.38252 112.143 9.37225C109.657 9.37225 107.84 11.1959 107.84 13.8103C107.84 16.6695 109.779 18.1892 112.081 18.1892C113.138 18.1892 114.194 17.9202 115.056 17.2141C115.14 17.143 115.247 17.1055 115.357 17.109C115.467 17.1125 115.571 17.1566 115.651 17.233L117.505 19.0485Z" fill="black"/>
<path d="M123.214 0.442461V7.72757C123.214 7.77225 123.227 7.8159 123.252 7.85276C123.277 7.88961 123.313 7.91793 123.355 7.93397C123.396 7.95001 123.441 7.953 123.485 7.94256C123.528 7.93212 123.567 7.90874 123.597 7.87551C124.855 6.50644 126.343 6.08281 127.885 6.08281C132.125 6.08281 134.001 8.97157 134.001 13.3814V20.8453C134.001 20.9627 133.954 21.0752 133.872 21.1582C133.789 21.2412 133.677 21.2878 133.56 21.2878H130.746C130.629 21.2878 130.516 21.2412 130.434 21.1583C130.351 21.0754 130.304 20.9628 130.304 20.8453V13.411C130.304 10.6742 128.879 9.51893 126.911 9.51893C124.729 9.51893 123.214 11.3735 123.214 13.6248V20.8453C123.213 20.9626 123.167 21.0749 123.084 21.1578C123.002 21.2407 122.89 21.2874 122.773 21.2878H119.959C119.842 21.2878 119.729 21.2412 119.647 21.1583C119.564 21.0754 119.517 20.9628 119.517 20.8453V0.442461C119.517 0.384243 119.528 0.326598 119.55 0.272828C119.573 0.219059 119.605 0.170223 119.646 0.129119C119.687 0.0880151 119.736 0.0554519 119.79 0.0332955C119.843 0.011139 119.901 -0.00017491 119.959 2.04405e-06H122.773C122.89 2.04405e-06 123.002 0.0466181 123.085 0.129595C123.167 0.212573 123.214 0.325114 123.214 0.442461Z" fill="black"/>
<path d="M21.5344 15.115C21.5014 15.1151 21.4688 15.1226 21.439 15.1369C21.4092 15.1512 21.383 15.172 21.3622 15.1977C21.3414 15.2235 21.3266 15.2535 21.3188 15.2858C21.3111 15.318 21.3105 15.3515 21.3173 15.384C21.6737 17.0987 23.2482 18.309 25.7259 18.309C26.952 18.309 28.5185 17.8921 29.439 17.1672C29.5233 17.101 29.6287 17.0679 29.7355 17.0741C29.8423 17.0803 29.9432 17.1253 30.0193 17.2009L31.7613 18.9317C31.8043 18.9736 31.8383 19.0238 31.8612 19.0794C31.8841 19.135 31.8953 19.1947 31.8943 19.2548C31.8933 19.3149 31.8801 19.3742 31.8553 19.4289C31.8306 19.4837 31.7949 19.5328 31.7506 19.5732C30.1613 20.9974 27.7788 21.6846 25.6603 21.6846C20.5093 21.6846 17.4487 18.4906 17.4487 13.6867C17.4487 9.12497 20.5401 5.84082 25.3869 5.84082C30.2739 5.84082 33.3652 8.79951 32.9659 14.7008C32.9585 14.8132 32.9088 14.9185 32.827 14.9957C32.7452 15.0728 32.6373 15.1159 32.5251 15.1163L21.5344 15.115ZM29.1335 12.0433C29.1666 12.0432 29.1991 12.0357 29.2289 12.0214C29.2587 12.0071 29.285 11.9863 29.3057 11.9606C29.3265 11.9348 29.3413 11.9048 29.3491 11.8725C29.3569 11.8403 29.3574 11.8068 29.3506 11.7743C29.0076 10.0059 27.5362 9.12228 25.5142 9.12228C23.6194 9.12228 22.0503 9.99644 21.4272 11.7448C21.4154 11.7784 21.4119 11.8143 21.4168 11.8495C21.4217 11.8848 21.4349 11.9184 21.4553 11.9475C21.4758 11.9766 21.5029 12.0003 21.5344 12.0168C21.5658 12.0332 21.6008 12.0418 21.6362 12.042L29.1335 12.0433Z" fill="black"/>
<path d="M40.6708 2.55522V6.10431C40.6722 6.16222 40.6961 6.21729 40.7374 6.25775C40.7787 6.29821 40.8342 6.32085 40.8919 6.32083H44.3544C44.4125 6.32065 44.4699 6.33197 44.5236 6.35412C44.5772 6.37628 44.626 6.40884 44.667 6.44995C44.7081 6.49105 44.7407 6.53989 44.763 6.59366C44.7852 6.64743 44.7966 6.70507 44.7966 6.76329V9.07511C44.7966 9.19281 44.7501 9.30569 44.6671 9.38892C44.5842 9.47215 44.4717 9.51891 44.3544 9.51891H40.8704C40.8118 9.51891 40.7556 9.54229 40.7141 9.5839C40.6726 9.62552 40.6493 9.68196 40.6493 9.74081V15.9958C40.6493 17.4253 41.4373 18.1247 42.5883 18.1247C43.0551 18.115 43.5167 18.024 43.9524 17.8557C44.008 17.8346 44.0673 17.825 44.1267 17.8275C44.1861 17.83 44.2444 17.8446 44.298 17.8704C44.3516 17.8962 44.3994 17.9326 44.4386 17.9774C44.4778 18.0223 44.5075 18.0747 44.526 18.1314L45.275 20.4298C45.3112 20.5391 45.3035 20.6584 45.2534 20.7621C45.2034 20.8658 45.115 20.9459 45.007 20.9852C44.1526 21.2946 43.2527 21.4587 42.3444 21.4707C39.103 21.5917 36.9844 19.7372 36.9844 15.9958V9.74081C36.9844 9.68196 36.9611 9.62552 36.9197 9.5839C36.8782 9.54229 36.822 9.51891 36.7633 9.51891H34.6287C34.5114 9.51891 34.399 9.47215 34.316 9.38892C34.2331 9.30569 34.1865 9.19281 34.1865 9.07511V6.76867C34.1865 6.71045 34.198 6.65281 34.2202 6.59904C34.2424 6.54527 34.275 6.49643 34.3161 6.45533C34.3572 6.41422 34.406 6.38166 34.4596 6.3595C34.5132 6.33735 34.5707 6.32603 34.6287 6.32621H36.754C36.8126 6.32621 36.8688 6.30283 36.9103 6.26122C36.9518 6.2196 36.9751 6.16316 36.9751 6.10431V2.86185C36.9748 2.75245 37.0149 2.64682 37.0876 2.56536C37.1604 2.4839 37.2606 2.43237 37.369 2.42074L40.183 2.12083C40.2441 2.11406 40.3059 2.12022 40.3645 2.13891C40.423 2.1576 40.477 2.1884 40.523 2.22934C40.569 2.27027 40.6059 2.32042 40.6313 2.37655C40.6568 2.43269 40.6702 2.49355 40.6708 2.55522Z" fill="black"/>
<path d="M58.0842 21.2879C57.9673 21.2879 57.8552 21.2412 57.7725 21.1583C57.6898 21.0753 57.6434 20.9627 57.6434 20.8454V13.259C57.6434 11.2821 56.6129 9.49342 54.5828 9.49342C52.5822 9.49342 51.4003 11.2875 51.4003 13.259V20.8454C51.4003 20.9627 51.3539 21.0753 51.2712 21.1583C51.1885 21.2412 51.0764 21.2879 50.9595 21.2879H48.1455C48.0285 21.2879 47.9164 21.2412 47.8337 21.1583C47.751 21.0753 47.7046 20.9627 47.7046 20.8454V6.70821C47.7044 6.64999 47.7157 6.59231 47.7378 6.53848C47.7598 6.48464 47.7923 6.4357 47.8332 6.39448C47.8742 6.35325 47.9229 6.32054 47.9764 6.29822C48.03 6.2759 48.0874 6.26441 48.1455 6.26441H50.7477C50.8543 6.26326 50.9577 6.30092 51.0388 6.3704C51.1198 6.43988 51.173 6.53648 51.1886 6.64231L51.3494 7.7182C51.3539 7.74413 51.366 7.76816 51.384 7.78729C51.402 7.80643 51.4252 7.81983 51.4508 7.82585C51.4763 7.83186 51.503 7.83022 51.5277 7.82113C51.5523 7.81203 51.5737 7.79588 51.5893 7.77469C52.4402 6.49169 54.0227 6.02637 55.3413 6.02637C57.0216 6.02637 58.7033 6.6719 59.6025 8.46729C59.6194 8.50184 59.645 8.53137 59.6768 8.55297C59.7086 8.57457 59.7454 8.5875 59.7837 8.59048C59.8219 8.59347 59.8603 8.58641 59.895 8.57C59.9297 8.55358 59.9596 8.52838 59.9817 8.49688C61.2828 6.6329 62.9297 6.08823 64.7655 6.08823C69.0066 6.08823 71.0983 8.70264 71.0983 13.2039V20.8454C71.098 20.9629 71.0512 21.0754 70.9683 21.1583C70.8854 21.2413 70.7732 21.2879 70.6561 21.2879H67.8421C67.7254 21.2875 67.6136 21.2407 67.5313 21.1578C67.4489 21.0748 67.4026 20.9625 67.4026 20.8454V13.1985C67.4026 11.2216 66.5852 9.5499 64.5886 9.5499C62.592 9.5499 61.3471 11.2821 61.3471 13.259V20.8454C61.3468 20.9629 61.3 21.0754 61.2172 21.1583C61.1343 21.2413 61.022 21.2879 60.9049 21.2879H58.0842Z" fill="black"/>
<path d="M14.1655 8.60716L15.2683 7.19774C15.3046 7.15152 15.3313 7.0985 15.3469 7.04179C15.3625 6.98507 15.3667 6.9258 15.3592 6.86745C15.3518 6.80909 15.3327 6.75281 15.3033 6.70192C15.2739 6.65102 15.2347 6.60653 15.1879 6.57104L13.1645 5.03924C13.0724 4.96935 12.9567 4.93851 12.8422 4.95335C12.7277 4.96819 12.6235 5.02752 12.5521 5.11859L11.4801 6.489C11.4493 6.5286 11.4059 6.55645 11.3572 6.56794C11.3085 6.57944 11.2573 6.57389 11.2121 6.55221C9.44461 5.74533 7.44374 5.6165 5.58799 6.19011C3.73223 6.76372 2.15026 7.99999 1.14131 9.66507C0.132352 11.3302 -0.233626 13.3086 0.112595 15.2262C0.458816 17.1438 1.49323 18.8675 3.02018 20.0714C4.54713 21.2753 6.46073 21.8759 8.39904 21.7595C10.3373 21.6431 12.166 20.8179 13.539 19.4398C14.912 18.0618 15.7343 16.2265 15.8502 14.2812C15.9661 12.3359 15.3677 10.4153 14.1682 8.88286C14.1366 8.84404 14.1191 8.79559 14.1186 8.74548C14.1181 8.69537 14.1347 8.64658 14.1655 8.60716ZM7.93181 18.3251C7.04047 18.3254 6.16906 18.0604 5.42781 17.5636C4.68656 17.0667 4.10875 16.3605 3.76746 15.5341C3.42618 14.7077 3.33674 13.7983 3.51047 12.9208C3.6842 12.0434 4.11329 11.2374 4.74347 10.6048C5.37365 9.9721 6.17662 9.54121 7.05082 9.36659C7.92501 9.19197 8.83117 9.28146 9.65469 9.62374C10.4782 9.96601 11.1821 10.5457 11.6773 11.2895C12.1726 12.0333 12.4369 12.9078 12.4369 13.8024C12.4369 15.0016 11.9623 16.1518 11.1175 17C10.2726 17.8481 9.12675 18.3248 7.93181 18.3251Z" fill="black"/>
<path d="M8.50664 12.7425C8.35994 12.8398 8.19186 12.8999 8.01689 12.9175C7.84192 12.9351 7.66531 12.9097 7.5023 12.8435C7.33928 12.7773 7.19476 12.6723 7.08119 12.5376C6.96761 12.4029 6.88841 12.2424 6.8504 12.0701C6.84313 12.0329 6.82634 11.9983 6.80168 11.9696C6.77701 11.941 6.74533 11.9193 6.70975 11.9066C6.67417 11.894 6.63592 11.8909 6.59879 11.8976C6.56165 11.9044 6.52691 11.9207 6.49798 11.945C6.37946 12.0517 6.27255 12.1707 6.17906 12.3001C5.94723 12.6241 5.80907 13.0062 5.77979 13.404C5.75051 13.8019 5.83126 14.2001 6.01313 14.5549C6.195 14.9096 6.47093 15.2071 6.81051 15.4145C7.15009 15.6218 7.54012 15.7311 7.93762 15.7302C8.33513 15.7293 8.72466 15.6182 9.06328 15.4093C9.40191 15.2003 9.67648 14.9016 9.85672 14.546C10.037 14.1904 10.1159 13.7918 10.0848 13.3941C10.0537 12.9964 9.91378 12.615 9.68048 12.292C9.57971 12.1542 9.46374 12.0284 9.33476 11.9168C9.30471 11.8913 9.26845 11.8742 9.22969 11.8674C9.19093 11.8605 9.15106 11.8641 9.11414 11.8778C9.07722 11.8915 9.04458 11.9147 9.01954 11.9452C8.9945 11.9757 8.97796 12.0123 8.97162 12.0513C8.91358 12.3342 8.74644 12.5827 8.50664 12.7425Z" fill="black"/>
</g>
<defs>
<clipPath id="clip0">
<rect width="134" height="28" fill="white"/>
</clipPath>
</defs>
</svg>
