<svg width="21" height="20" viewBox="0 0 21 20" fill="none" xmlns="http://www.w3.org/2000/svg">
<path fill-rule="evenodd" clip-rule="evenodd" d="M18.322 0.354739C17.5347 0.711926 8.65948 4.85529 1.43047 8.21284C0.857872 8.49859 0.5 9.07009 0.5 9.64159C0.5 10.2131 0.929446 10.6417 1.43047 10.7131C1.85991 10.7846 6.15438 11.4275 6.15438 11.4275L7.37114 18.5713L8.01531 15.428L7.08484 10.7131L15.8169 4.28379L8.65948 12.1419L11.1646 14.9994C11.3077 15.1423 14.3854 18.7141 14.6002 18.9284C14.958 19.2856 15.5306 20 15.8169 20C16.3179 20 16.819 19.2856 17.0337 18.2141C17.2484 17.2139 18.6799 10.2845 20.4693 1.06911C20.684 0.0689903 19.7535 -0.359634 18.322 0.354739Z" fill="white"/>
</svg>
